<?xml version="1.0" encoding="utf-8"?>
<!-- Generator: Adobe Illustrator 17.1.0, SVG Export Plug-In . SVG Version: 6.00 Build 0)  -->
<!DOCTYPE svg PUBLIC "-//W3C//DTD SVG 1.1//EN" "http://www.w3.org/Graphics/SVG/1.1/DTD/svg11.dtd">
<svg version="1.1" id="Layer_1" xmlns="http://www.w3.org/2000/svg" xmlns:xlink="http://www.w3.org/1999/xlink" x="0px" y="0px"
	 viewBox="0 0 128 128" enable-background="new 0 0 128 128" xml:space="preserve">
<path fill="#FFFFFF" d="M55.6,0.7c0,0-0.5,7.9,1.2,10.3c1.7,2.4,3.8,7.1,8.2,10c4.4,3,14.1,10.4,14.3,13.6c-0.2-1.7,0.5-5.6-0.8-7
	c-1.4-1.4-6.8-6.5-6.8-6.5s-6.8-4.6-8.7-6.9C61,12,55.8,7.1,55.6,0.7z"/>
<path fill="#FFFFFF" d="M79,33.7c0,0-3.4,5.1-4.1,5.4c-0.6,0.3-9.8,7.6-9.8,7.6s-7,5-6.3,10.9c0.5,0.8,0.4,1.4,0.4,1.4
	s0.8-3.2,3.7-5.4c2.9-2.2,9-7.2,9-7.2s5.7-5,6.1-5.8C78.4,39.6,80.1,36.5,79,33.7z"/>
<path fill="#FFFFFF" d="M58.8,57.6v5.7c0,0,1.9,4.7,5.4,6.2c3.5,1.5,11.6,5.2,13.4,9c0.2-1.3,0.2-4.4,0.2-4.4s-1.9-4.4-6.4-5.5
	c-4.4-1.1-7.4-3.8-7.8-4.1C63.3,64.1,59.3,60.6,58.8,57.6z"/>
<path fill="#FFFFFF" d="M76.8,77c0,0-2.7,2.7-4.1,3.1C71.2,80.4,58,85.6,58.9,91c0.4,1.6,0.6,1.9,0.6,1.9s2-3.1,3.4-3.8
	c1.5-0.7,7.1-3.4,7.9-3.6c0.8-0.2,6.5-2.8,6.9-6.9C76.6,76.8,76.8,77,76.8,77z"/>
<path fill="#FFFFFF" d="M76.5,101.7c-0.9-0.5-2.1-1.7-5.3-0.2c0,0.4,2.6,0.8,2.8,1C74.2,102.6,75,102.2,76.5,101.7z"/>
<path fill="#FFFFFF" d="M59.1,91.5l-0.3,5.1c0,0,2.7,5.8,7.4,7.6c4.7,1.8,8.3,3.4,10.7,2.5c0.3-0.8,0-4.4,0-4.4s-1.1,0.3-2.9,0.2
	C72.2,102.3,60.1,98,59.1,91.5z"/>
<path fill="#FFFFFF" d="M65,103.8c0,0-5.3,3.6-4.8,5.6c0.5,2,1,2.1,1,2.1s5-3.7,5.9-4.3c0.9-0.6,3.5-1.2,3.5-1.2L65,103.8z"/>
<path fill="#FFFFFF" d="M60.5,110.2l0.1,5.1c0,0,2.7,3.4,3.9,4.1c1.2,0.7,4.6,1.9,6.1,2.1c1.5,0.2,4.3,0,4.7-0.3
	c0.4-0.3-0.1-4.9-0.1-4.9s-0.8,0.8-4.5,0.6C67.1,116.8,61.2,112.6,60.5,110.2z"/>
<path fill="#FFFFFF" d="M75.3,115.8c0,0-1.2-1.3-3.5-1.2c-2.3,0.1-5.8,0.8-5.8,0.8s2.9,1.8,4.3,1.7C71.8,117,74.5,117.3,75.3,115.8z
	"/>
<path fill="#FFFFFF" d="M62.2,119.3c0,0-0.5,4.8-0.1,5.2c0.4,0.4,3.8,3.4,5.8,3.4c0.8-0.8,1.7-4.3,1.7-4.3s-4.4-0.7-5.9-2.2
	C62.2,119.8,62.2,119.3,62.2,119.3z"/>
</svg>
